<?xml version="1.0" encoding="utf-8"?>
<!-- Generator: Adobe Illustrator 21.0.0, SVG Export Plug-In . SVG Version: 6.00 Build 0)  -->
<svg version="1.1" id="Capa_1" xmlns="http://www.w3.org/2000/svg" xmlns:xlink="http://www.w3.org/1999/xlink" x="0px" y="0px"
	 viewBox="0 0 545.1 545.1" style="enable-background:new 0 0 545.1 545.1;" xml:space="preserve">
<style type="text/css">
	.st0{fill:none;stroke:#555555;stroke-width:2;stroke-miterlimit:10;}
	.st1{fill:none;stroke:#EEEEEE;stroke-width:20;stroke-miterlimit:10;}
</style>
<path class="st0" d="M196.6,347.9c-5.4,9.1-2.4,20.8,6.7,26.2c9.1,5.4,20.8,2.4,26.2-6.7l31.8-51.4c3.6-6.1,3.4-13.3,0.2-19l40.5-68
	l-16.4-9.8l-40.5,68c-6.6-0.1-13,3.2-16.6,9.3L196.6,347.9L196.6,347.9z M371.3,206c2.7-4.5,4.2-11.1-0.3-13.8l-8.1-4.8
	c-2.9-1.7-4.5,0.8-5.8,3.1c-0.6,1-1.9,5.4-10.1,0.5c0,0,1.4-2.3,2.7-4.6c2.5-4.3,0.5-6.6-6.9-10.9l-8.2-4.9c-1.6-1-3.4-1-5.1-0.8
	c-14.6-8.4-54.3-24.7-83.8,24.7c26.6-15.5,43-14.7,51.3-12.2c-0.4,0.3-0.8,0.7-1.1,1.1L281.7,207l32.6,19.9l9.4-15.8
	c8.2,4.9,8.4,4.7,10.8,0.6c1.3-2.3,2.6-4.3,2.6-4.3c8.2,4.9,5.7,7,5.1,8c-1.3,2.3-0.8,3.8,1.1,4.9l9.4,5.6c4.5,2.7,6.1,1.1,8.8-3.4
	L371.3,206z"/>
<circle class="st1" cx="275.9" cy="268.5" r="188"/>
</svg>
